 <svg  version="1.0" xmlns="http://www.w3.org/2000/svg"  width="300.000000pt" height="300.000000pt" viewBox="0 0 300.000000 300.000000"  preserveAspectRatio="xMidYMid meet">  <g transform="translate(0.000000,300.000000) scale(0.100000,-0.100000)" fill="#ffffff" stroke="none"> <path d="M1016 2818 c-9 -12 -16 -40 -16 -61 0 -22 -5 -39 -12 -41 -78 -19 -195 -66 -248 -100 -68 -44 -150 -136 -188 -212 -30 -58 -62 -189 -62 -248 1 -158 82 -339 194 -436 48 -41 153 -99 214 -117 71 -22 236 -24 307 -4 84 24 193 84 252 140 l21 20 59 -45 c108 -85 206 -123 338 -131 135 -8 264 32 372 114 60 45 60 46 110 113 80 108 118 237 110 370 -15 237 -160 425 -392 509 -63 22 -166 32 -239 22 -285 -40 -478 -249 -501 -545 -6 -79 -29 -156 -46 -156 -5 0 -9 -6 -9 -13 0 -19 -59 -71 -109 -97 -80 -40 -198 -25 -278 36 -134 102 -140 319 -10 418 81 62 117 64 117 6 0 -15 9 -35 20 -45 26 -23 42 -16 151 67 114 86 128 97 173 140 l38 38 -18 27 c-20 32 -40 53 -49 53 -3 0 -34 24 -68 53 -195 162 -203 166 -231 125z m332 -243 c10 -9 -10 -29 -100 -97 -62 -47 -137 -104 -165 -128 l-53 -42 0 72 0 72 -27 -6 c-60 -15 -135 -59 -170 -102 -50 -60 -72 -117 -72 -191 -2 -170 129 -303 299 -303 166 0 300 133 300 299 2 364 368 625 714 510 278 -93 433 -401 341 -676 -60 -178 -200 -312 -376 -358 -78 -21 -214 -19 -287 4 -86 26 -182 83 -229 134 l-41 45 -54 -52 c-99 -95 -229 -146 -375 -146 -293 0 -533 243 -533 540 0 146 54 272 160 380 89 89 164 125 328 156 20 4 22 10 22 75 l0 70 153 -122 c83 -67 158 -128 165 -134z"/> <path d="M1813 2436 c-131 -43 -213 -159 -213 -301 0 -108 95 -235 202 -271 66 -22 177 -15 234 14 183 94 221 353 71 489 -78 70 -202 99 -294 69z m202 -41 c55 -27 120 -96 140 -149 13 -34 16 -65 13 -120 -4 -65 -10 -82 -39 -124 -62 -90 -137 -127 -247 -120 -102 6 -185 56 -228 138 -29 54 -26 191 5 249 35 67 97 118 171 142 41 13 142 4 185 -16z"/> <path d="M1576 1983 c-9 -27 -30 -72 -46 -101 -16 -30 -22 -48 -14 -41 21 17 70 116 77 157 9 46 1 39 -17 -15z"/> <path d="M987 1484 c-80 -15 -151 -40 -189 -66 -14 -10 -29 -18 -32 -18 -17 0 -109 -91 -145 -143 -74 -108 -102 -200 -102 -335 0 -189 80 -343 237 -462 34 -25 76 -46 144 -71 56 -20 82 -24 185 -23 101 1 132 5 195 27 l75 25 3 -106 c4 -143 3 -142 147 -142 150 0 145 -6 145 183 0 81 3 147 6 147 6 0 66 -40 74 -50 3 -3 33 -27 67 -53 34 -26 68 -54 76 -61 16 -17 79 -56 89 -56 17 0 38 34 38 61 0 44 15 66 51 73 17 3 64 22 105 42 193 96 318 314 301 527 -5 72 -51 229 -68 235 -5 2 -9 10 -9 17 0 19 -116 136 -170 172 -111 73 -259 105 -382 84 -116 -21 -222 -71 -294 -139 -33 -32 -49 -30 -92 10 -108 100 -301 151 -455 122z m273 -48 c74 -25 175 -90 211 -134 l24 -29 62 58 c208 193 522 185 723 -20 109 -112 157 -238 147 -392 -6 -111 -27 -173 -87 -262 -74 -111 -193 -194 -315 -220 l-51 -10 4 -64 c3 -41 1 -63 -6 -63 -14 0 -322 248 -321 258 0 4 61 52 135 107 74 55 144 110 156 123 35 36 41 27 36 -48 -3 -39 -2 -70 2 -70 23 0 87 36 125 71 117 108 119 295 5 409 -52 52 -104 74 -188 78 -66 4 -79 1 -137 -27 -47 -23 -73 -44 -97 -79 -62 -86 -60 -72 -64 -515 l-4 -408 -117 0 -117 0 3 141 3 141 -54 -30 c-79 -44 -150 -61 -253 -61 -236 0 -432 136 -511 356 -110 302 83 645 399 710 83 18 205 9 287 -20z m756 -257 c44 -19 102 -78 131 -131 27 -51 24 -152 -7 -212 -24 -48 -93 -116 -116 -116 -14 0 -24 22 -24 54 0 51 -40 59 -93 19 -19 -16 -46 -36 -59 -45 -12 -9 -58 -44 -102 -78 -43 -33 -83 -60 -88 -60 -6 0 -8 79 -6 203 3 224 5 230 75 308 78 86 180 106 289 58z"/> <path d="M1452 1233 c-24 -35 -58 -117 -66 -160 -9 -51 0 -39 23 30 12 34 33 82 46 106 29 50 27 66 -3 24z"/> <path d="M1015 1221 c-98 -26 -190 -113 -220 -207 -42 -135 24 -291 152 -358 108 -55 259 -29 348 59 62 63 80 108 80 210 0 76 -4 97 -25 138 -29 59 -87 112 -148 139 -49 22 -141 31 -187 19z m167 -41 c58 -21 124 -81 154 -140 23 -45 24 -160 1 -213 -24 -56 -102 -134 -155 -154 -65 -25 -158 -22 -213 6 -65 34 -123 101 -144 167 -68 216 143 414 357 334z"/> <path d="M1561 673 c-19 -35 -57 -90 -84 -121 l-51 -57 61 59 c41 39 71 79 88 118 36 81 27 82 -14 1z"/> </g> </svg> 