<svg width="328" height="192" viewBox="0 0 328 192" fill="none" xmlns="http://www.w3.org/2000/svg">
<g clip-path="url(#clip0_2125_2638)">
<rect width="328" height="192" rx="16" fill="#F3F3F3"/>
<path d="M272.814 112.851C272.427 117.023 271.655 120.114 266.709 121.659C264.237 122.355 261.687 122.664 259.137 122.741C258.442 122.741 257.592 122.741 256.819 122.741H68.4351C68.2032 122.741 67.9714 122.741 67.7396 122.664C65.4215 122.278 61.0171 119.805 59.3945 113.391C57.54 106.205 71.2168 62.3161 75.3893 51.8074C79.871 40.6806 114.411 34.3445 156.059 34.7308C195.312 35.0399 244.61 39.4443 251.487 44.6986C258.364 49.953 273.355 106.824 272.814 112.851Z" fill="white"/>
<path d="M261.919 120.037C259.601 120.655 257.128 121.041 254.733 121.041C254.037 121.041 253.264 121.041 252.492 121.041H73.0713C72.8395 121.041 72.6077 121.041 72.4531 120.964C73.7667 110.61 76.8575 92.065 83.1163 89.7469C84.5072 89.206 87.5207 88.8969 91.6933 88.5879C102.743 87.8924 121.597 88.047 137.669 88.5879C153.046 89.1287 165.872 90.056 166.877 90.9832C168.345 92.3741 169.272 94.2286 169.581 96.2376C169.581 96.2376 169.581 91.7559 172.749 90.7514C174.063 90.2878 188.667 89.206 205.203 88.5106C221.738 87.8152 240.283 87.5833 249.633 88.8197C252.878 89.2833 254.964 89.9014 255.583 90.7514C258.055 94.7694 260.605 110.378 261.919 120.037Z" fill="#F3F3F3"/>
<path d="M93.1616 63.7842H137.205C143.078 63.7842 147.869 68.5749 147.869 74.4474V129.077H82.5756V74.4474C82.4984 68.5749 87.2891 63.8614 93.1616 63.7842Z" fill="#222222"/>
<path d="M197.244 63.7842H241.288C247.16 63.7842 251.951 68.5749 251.951 74.4474V129.077H186.658V74.4474C186.658 68.5749 191.372 63.7842 197.244 63.7842Z" fill="#222222"/>
<path d="M186.73 136.418C185.803 130.623 185.262 124.673 185.03 118.801C180.162 118.878 190.13 85.5745 197.007 80.9383C209.525 72.5159 229.383 68.8842 242.596 84.2609C246.769 89.1289 255.732 103.115 254.65 114.396C254.341 117.564 250.323 118.878 245.764 118.955C244.451 127.764 245.146 139.122 245.146 139.122L186.73 136.418Z" fill="#5F58FC"/>
<path d="M225.133 78.8519L221.424 101.183L218.566 110.996L215.784 101.183L212.616 78.7746C217.329 77.3837 220.42 77.461 225.133 78.8519Z" fill="#222222"/>
<path d="M218.565 88.1244L215.243 85.5744L218.565 82.9473L221.965 85.5744L218.565 88.1244Z" fill="white"/>
<path d="M221.424 101.183L218.565 110.996L215.784 101.183L217.484 86.7334V86.4243H219.724V86.7334L221.424 101.183Z" fill="white"/>
<path d="M204.162 109.296C219.847 96.7014 234.838 77.3066 234.838 77.3066C236.692 77.7703 238.469 78.6975 239.86 79.9338C236.77 87.1972 222.552 101.338 210.498 110.842C208.489 110.069 206.325 109.451 204.162 109.296Z" fill="#222222"/>
<path d="M217.406 107.519C207.593 107.519 199.248 114.628 197.703 124.364H203.421C205.198 116.637 212.848 111.769 220.574 113.546C225.983 114.782 230.156 118.955 231.392 124.364H237.11C235.565 114.705 227.22 107.519 217.406 107.519Z" fill="white"/>
<path d="M209.293 110.919C210.684 111.846 211.92 112.928 213.002 114.164C213.466 114.705 214.007 115.555 213.543 116.019C213.079 116.482 212.384 116.173 211.843 115.941L207.748 113.701C209.37 114.241 210.53 115.632 211.379 117.1C211.534 117.255 211.611 117.487 211.611 117.719C211.534 118.105 211.225 118.414 210.839 118.414C210.452 118.414 210.066 118.337 209.757 118.105C207.98 117.332 207.052 116.714 205.275 115.941C206.202 116.482 206.666 116.482 207.593 117.023C208.52 117.564 210.22 119.264 209.757 119.882C209.37 120.346 208.752 120.5 208.211 120.268C206.898 119.959 205.584 119.573 204.271 119.109C205.352 119.419 206.357 120.114 206.975 121.041C207.052 121.196 207.13 121.35 207.13 121.505C207.13 121.968 206.357 122.046 205.893 121.891C203.575 121.196 201.489 119.65 199.016 119.419C198.398 119.496 197.857 119.341 197.316 118.955C195.616 117.255 198.862 113.469 200.253 112.464C203.266 110.301 205.816 108.833 209.293 110.919Z" fill="white"/>
<path d="M206.511 122.509C206.279 122.509 206.125 122.509 205.893 122.432C204.889 122.123 203.961 121.737 203.034 121.273C201.798 120.655 200.561 120.191 199.171 119.959H198.939C198.321 119.959 197.625 119.805 197.162 119.341C196.698 118.878 196.466 118.182 196.543 117.564C196.698 115.555 199.016 112.928 200.175 112.078C203.034 109.914 205.893 108.214 209.679 110.455C211.07 111.382 212.384 112.464 213.543 113.778C214.47 114.705 214.702 115.787 214.084 116.405C213.697 116.791 213.002 117.1 211.766 116.405C211.843 116.56 211.92 116.714 212.075 116.869C212.229 117.1 212.384 117.409 212.384 117.719C212.306 118.414 211.766 118.878 211.147 118.955C210.916 118.955 210.607 118.955 210.375 118.878C210.452 119.032 210.529 119.264 210.607 119.496C210.684 119.728 210.607 120.037 210.452 120.268C209.988 120.887 209.138 121.118 208.366 120.887L207.67 120.732L207.748 120.809C207.902 121.041 207.979 121.273 207.979 121.582C207.979 121.891 207.825 122.2 207.593 122.355C207.207 122.432 206.82 122.509 206.511 122.509ZM206.048 110.455C204.193 110.455 202.57 111.537 200.716 112.928C199.712 113.701 197.625 116.096 197.548 117.641C197.471 118.028 197.625 118.337 197.857 118.569C198.166 118.8 198.552 118.878 198.939 118.878H199.171C200.639 119.109 202.107 119.573 203.42 120.268C204.27 120.732 205.198 121.041 206.125 121.35C206.279 121.428 206.434 121.428 206.589 121.35L206.511 121.273C206.125 120.655 205.507 120.191 204.889 119.882L204.039 119.573C203.73 119.496 203.575 119.187 203.652 118.878C203.73 118.569 204.039 118.414 204.348 118.491C204.657 118.569 204.966 118.646 205.275 118.8C206.279 119.109 207.284 119.418 208.288 119.65C208.752 119.728 209.061 119.805 209.216 119.496C208.752 118.646 208.057 117.95 207.207 117.409H207.129L206.357 117.023L206.125 116.946C205.661 116.791 205.275 116.56 204.889 116.328C204.657 116.173 204.58 115.864 204.657 115.632C204.811 115.4 205.12 115.246 205.352 115.4C205.893 115.632 206.357 115.864 206.82 116.096C207.129 116.25 207.438 116.405 207.748 116.559C208.366 116.869 209.061 117.178 209.911 117.564C210.143 117.719 210.452 117.796 210.761 117.796C210.838 117.796 210.993 117.719 210.993 117.641C210.993 117.564 210.916 117.409 210.838 117.332C210.297 116.405 209.679 115.555 208.829 114.937L207.438 114.164C207.207 114.01 207.052 113.701 207.207 113.391C207.361 113.16 207.593 113.082 207.825 113.16C208.366 113.314 208.907 113.623 209.448 114.01L211.997 115.4C212.461 115.71 212.925 115.787 213.079 115.632C213.234 115.478 212.925 114.937 212.538 114.473C211.457 113.314 210.22 112.232 208.907 111.382C208.134 110.842 207.129 110.532 206.048 110.455Z" fill="#222222"/>
<path d="M226.91 110.224C225.52 111.151 224.283 112.233 223.201 113.469C222.738 114.01 222.197 114.86 222.661 115.323C223.124 115.787 223.82 115.478 224.36 115.246L228.456 113.005C226.833 113.546 225.674 114.937 224.824 116.405C224.67 116.56 224.592 116.791 224.592 117.023C224.67 117.41 224.979 117.719 225.365 117.719C225.751 117.719 226.138 117.641 226.447 117.41C228.224 116.637 229.151 116.019 230.928 115.246C230.001 115.787 229.538 115.787 228.61 116.328C227.683 116.869 225.983 118.569 226.447 119.187C226.833 119.65 227.451 119.805 227.992 119.573C229.306 119.264 230.619 118.878 231.933 118.414C230.851 118.723 229.847 119.419 229.228 120.346C229.151 120.5 229.074 120.655 229.074 120.809C229.074 121.273 229.847 121.35 230.31 121.196C232.628 120.5 234.715 118.955 237.187 118.723C237.805 118.8 238.346 118.646 238.887 118.26C240.587 116.56 237.342 112.773 235.951 111.769C232.937 109.605 230.31 108.137 226.91 110.224Z" fill="white"/>
<path d="M229.692 121.737C229.383 121.737 229.074 121.659 228.842 121.505C228.611 121.35 228.456 121.041 228.456 120.732C228.456 120.423 228.533 120.191 228.688 119.959L228.765 119.882L228.07 120.037C227.297 120.346 226.447 120.114 225.984 119.419C225.829 119.187 225.752 118.878 225.829 118.646C225.906 118.414 225.984 118.259 226.061 118.028C225.829 118.105 225.52 118.182 225.288 118.105C224.593 118.105 224.052 117.564 224.052 116.869C224.052 116.56 224.129 116.25 224.361 116.019C224.438 115.864 224.515 115.71 224.67 115.555C223.356 116.25 222.661 115.941 222.352 115.555C221.734 114.937 221.965 113.855 222.893 112.928C224.052 111.692 225.365 110.532 226.756 109.605C230.542 107.287 233.401 109.064 236.26 111.228C237.419 112.078 239.738 114.705 239.892 116.714C239.969 117.41 239.738 118.028 239.274 118.491C238.733 118.878 238.115 119.109 237.497 119.109H237.265C235.874 119.341 234.638 119.728 233.401 120.423C232.474 120.887 231.547 121.273 230.542 121.582C230.156 121.737 229.924 121.737 229.692 121.737ZM231.161 119.187C230.542 119.496 229.924 119.959 229.538 120.578C229.538 120.655 229.461 120.655 229.461 120.732C229.461 120.655 229.77 120.732 230.002 120.655C230.929 120.346 231.856 120.037 232.706 119.573C234.02 118.878 235.488 118.414 236.956 118.182H237.188C237.574 118.182 237.96 118.105 238.269 117.873C238.501 117.641 238.656 117.255 238.578 116.946C238.501 115.4 236.415 113.005 235.41 112.232C232.706 110.146 230.311 108.755 227.065 110.687C225.752 111.537 224.515 112.619 223.434 113.778C223.047 114.164 222.738 114.705 222.893 114.937C223.047 115.169 223.434 115.014 223.975 114.705L226.524 113.314C226.988 112.928 227.529 112.619 228.147 112.464C228.456 112.387 228.765 112.542 228.842 112.851C228.92 113.082 228.843 113.391 228.611 113.469L227.22 114.241C226.447 114.937 225.752 115.787 225.211 116.637C225.134 116.714 225.134 116.791 225.056 116.946C225.134 117.023 225.211 117.1 225.288 117.1C225.597 117.1 225.829 117.023 226.138 116.869C226.988 116.482 227.606 116.173 228.302 115.864C228.611 115.71 228.92 115.555 229.229 115.4C229.692 115.169 230.156 114.937 230.697 114.705C231.006 114.628 231.315 114.705 231.392 115.014C231.47 115.246 231.392 115.555 231.161 115.71C230.774 115.941 230.311 116.173 229.924 116.328L229.692 116.405L228.842 116.791H228.765C227.838 117.332 226.756 118.569 226.833 118.955C226.988 119.187 227.297 119.109 227.761 119.032C228.765 118.8 229.77 118.491 230.774 118.182C231.083 118.028 231.392 117.95 231.701 117.873C232.011 117.796 232.32 117.95 232.397 118.259C232.474 118.569 232.32 118.878 232.011 118.955L231.161 119.187Z" fill="#222222"/>
<path d="M195.385 110.687C195.076 110.687 194.844 110.455 194.844 110.146C194.844 110.069 194.844 109.992 194.844 109.992C194.844 109.992 199.171 97.783 201.566 90.8287C201.644 90.5196 201.953 90.3651 202.262 90.5196C202.571 90.5969 202.725 90.906 202.571 91.215C200.562 97.0876 197.162 106.746 196.157 109.605L204.812 108.755C205.121 108.755 205.352 108.91 205.43 109.219C205.43 109.528 205.275 109.76 204.966 109.837L195.385 110.687Z" fill="#222222"/>
<path d="M233.401 109.837C232.474 109.837 231.547 109.837 230.697 109.76C230.387 109.683 230.233 109.451 230.233 109.142C230.31 108.833 230.542 108.678 230.851 108.678C231.392 108.755 234.792 108.755 239.66 108.601C239.196 105.819 237.264 94.3831 236.569 89.2061C236.569 88.897 236.724 88.6652 237.033 88.5879C237.342 88.5879 237.574 88.7424 237.651 89.0515C238.424 95.0013 240.819 108.91 240.819 109.064C240.819 109.219 240.819 109.373 240.742 109.528C240.664 109.683 240.51 109.76 240.355 109.76C237.651 109.837 235.178 109.837 233.401 109.837Z" fill="#222222"/>
<path d="M231.392 61.3117C231.392 61.3117 235.41 53.2756 233.865 51.2666C232.319 49.2576 231.315 49.953 231.315 49.953C232.938 48.794 231.006 46.3986 230.001 45.5486C229.151 44.9305 228.301 44.4669 227.297 44.1578C224.902 43.2305 222.429 42.6897 219.879 42.6897C217.329 42.6124 214.857 43.4624 212.77 45.0078C209.679 47.5577 208.675 50.7257 208.984 54.5892C209.216 57.3709 210.066 60.1526 210.22 62.8571C213.388 63.1662 216.634 63.5525 219.802 63.6298C222.429 63.707 229.847 64.2479 231.392 61.3117Z" fill="white"/>
<path d="M223.279 64.248C222.352 64.248 221.424 64.248 220.652 64.1707H219.802C217.175 64.0934 214.547 63.8616 211.998 63.5525L210.143 63.398C209.834 63.398 209.679 63.1662 209.679 62.8571C209.525 61.389 209.37 59.9981 209.061 58.6073C208.752 57.2937 208.598 55.9801 208.443 54.5892C208.057 50.2621 209.293 47.0168 212.384 44.5442C214.547 42.9215 217.097 42.0715 219.802 42.0715C222.429 42.1488 224.979 42.6124 227.374 43.6169C228.379 43.926 229.383 44.4669 230.233 45.0851C231.083 45.7805 232.474 47.3259 232.397 48.794C232.397 48.9485 232.397 49.1804 232.319 49.3349C233.092 49.644 233.788 50.1849 234.251 50.9576C235.951 53.3529 232.01 61.2344 231.779 61.6208C230.697 63.8616 226.602 64.248 223.279 64.248ZM210.761 62.3162L212.152 62.4708C214.702 62.7026 217.329 63.0117 219.879 63.0889H220.729C223.433 63.1662 229.692 63.398 230.929 61.0026C232.165 58.53 234.483 52.8893 233.479 51.4984C232.551 50.2621 231.933 50.1849 231.701 50.2621C231.47 50.4167 231.083 50.4167 230.929 50.1076C230.774 49.7985 230.774 49.4894 231.083 49.3349C231.315 49.1804 231.47 48.9485 231.47 48.6395C231.47 47.7122 230.465 46.3986 229.692 45.8577C228.92 45.3169 228.07 44.8532 227.142 44.5442C224.824 43.6169 222.429 43.1533 219.956 43.076C217.561 43.076 215.166 43.8487 213.234 45.3169C210.452 47.5577 209.37 50.4167 209.679 54.4347C209.757 55.7483 210.066 57.0619 210.298 58.2982C210.529 59.5345 210.684 61.0026 210.761 62.3162Z" fill="#222222"/>
<path d="M227.76 62.3935C228.61 58.9936 234.405 58.53 233.865 62.6253C233.71 64.0161 233.092 65.3297 232.01 66.3342C230.928 67.3387 229.383 67.5705 228.069 66.9524" fill="white"/>
<path d="M229.537 67.8797C228.919 67.8797 228.378 67.7252 227.837 67.4933C227.528 67.3388 227.451 67.0297 227.606 66.7206C227.76 66.4116 228.069 66.3343 228.378 66.4888C229.46 66.9525 230.774 66.7979 231.701 65.9479C232.628 65.0207 233.246 63.8617 233.324 62.5481C233.555 60.8481 232.551 60.4618 231.933 60.3073C230.31 59.9982 228.842 61.0027 228.378 62.5481C228.301 62.8572 227.992 63.0117 227.683 62.9344C227.374 62.8572 227.219 62.5481 227.297 62.239C227.837 60.0755 230.001 58.7619 232.165 59.1482C233.478 59.38 234.792 60.4618 234.483 62.6254C234.328 64.1708 233.633 65.6389 232.474 66.7206C231.624 67.4933 230.542 67.8797 229.537 67.8797Z" fill="#222222"/>
<path d="M213.388 61.389C213.079 57.8346 207.361 56.5983 207.361 60.6936C207.284 62.0845 207.748 63.5526 208.598 64.6344C209.525 65.7934 210.993 66.257 212.384 65.7934" fill="white"/>
<path d="M211.456 66.5662C210.22 66.5662 208.984 65.948 208.211 65.0208C207.284 63.7844 206.743 62.2391 206.82 60.6937C206.82 58.4528 208.288 57.6029 209.602 57.5256C211.843 57.4483 213.697 59.071 213.929 61.3118C213.929 61.6209 213.697 61.8527 213.465 61.93C213.156 61.93 212.925 61.6982 212.847 61.3891C212.616 59.7664 211.225 58.6074 209.602 58.6846C208.984 58.6846 207.902 58.9937 207.902 60.6937C207.825 62.0072 208.211 63.2436 208.984 64.3253C209.757 65.2526 210.993 65.6389 212.152 65.3299C212.461 65.2526 212.77 65.4071 212.847 65.6389C212.925 65.8707 212.77 66.2571 212.538 66.3343C212.229 66.4889 211.843 66.5662 211.456 66.5662Z" fill="#222222"/>
<path d="M212.616 78.7747C213.697 81.0928 215.938 82.5609 218.488 82.6382C221.038 82.87 223.588 81.7882 225.133 79.7019V77.2293V71.5113L225.056 66.1797L214.625 65.407L213.929 69.7341L213.698 71.125L212.616 78.7747Z" fill="white"/>
<path d="M219.183 83.179C218.952 83.179 218.72 83.179 218.488 83.179C215.706 83.1018 213.234 81.4791 212.152 79.0065C212.152 78.9292 212.152 78.8519 212.152 78.6974L214.161 65.407C214.238 65.0979 214.47 64.9434 214.779 64.9434L225.21 65.7161C225.52 65.7161 225.751 65.9479 225.751 66.2569L225.829 79.7019C225.829 79.7792 225.829 79.9337 225.751 80.011C224.129 82.0973 221.733 83.2563 219.183 83.179ZM213.156 78.6974C214.161 80.7064 216.247 82.02 218.488 82.0973C220.806 82.3291 223.124 81.4018 224.515 79.5473L224.438 66.7978L215.088 66.1024L213.156 78.6974Z" fill="#222222"/>
<path d="M213.775 71.2021C214.548 72.5157 215.629 73.6748 216.943 74.4475C219.107 75.8383 222.352 77.461 225.056 77.3065V71.5885C223.047 71.6658 221.038 71.5885 219.029 71.2021C217.252 70.9703 215.552 70.5067 213.929 69.8113L213.775 71.2021Z" fill="#222222"/>
<path d="M224.592 77.8474C221.579 77.8474 218.411 75.9929 216.633 74.9112C215.243 74.0612 214.083 72.9022 213.234 71.434C213.156 71.3568 213.156 71.2022 213.156 71.125L213.388 69.7341C213.388 69.5796 213.543 69.425 213.697 69.3477C213.852 69.2705 214.006 69.2705 214.161 69.3477C215.706 70.0432 217.406 70.5068 219.106 70.6613C221.038 71.0477 223.047 71.2022 224.979 71.0477C225.133 71.0477 225.288 71.0477 225.365 71.2022C225.442 71.2795 225.519 71.434 225.519 71.5886V77.3065C225.519 77.6156 225.288 77.8474 225.056 77.8474C224.979 77.7702 224.824 77.8474 224.592 77.8474ZM214.315 71.0477C215.088 72.2067 216.092 73.2112 217.252 73.9839C218.565 74.8339 221.733 76.7656 224.592 76.7656V72.2067C222.738 72.284 220.883 72.1295 219.029 71.7431C217.483 71.5113 215.938 71.2022 214.47 70.5841L214.315 71.0477Z" fill="#222222"/>
<path d="M219.029 72.4385L219.956 72.5158C224.361 72.8249 228.224 69.5023 228.533 65.0979L229.46 52.5029L220.111 54.1256L212.616 51.2666L211.688 63.8616C211.379 68.266 214.702 72.1295 219.029 72.4385Z" fill="white"/>
<path d="M220.574 73.1341C220.343 73.1341 220.111 73.1341 219.956 73.1341L219.029 73.0568C214.315 72.6705 210.761 68.5752 211.147 63.8617L212.075 51.2667C212.075 51.1122 212.152 50.9576 212.306 50.8031C212.461 50.7258 212.616 50.7258 212.77 50.7258L220.188 53.5075L229.383 51.9622C229.538 51.9622 229.692 51.9621 229.847 52.1167C230.001 52.194 230.078 52.4258 230.001 52.5803L229.074 65.1753C228.765 69.6569 225.133 73.1341 220.574 73.1341ZM219.106 71.8978L220.033 71.975C224.129 72.2841 227.683 69.1933 227.992 65.098L228.842 53.1985L220.188 54.6666C220.111 54.6666 220.033 54.6666 219.879 54.6666L213.079 52.1167L212.229 64.0162C211.92 68.0343 215.011 71.666 219.106 71.8978Z" fill="#222222"/>
<path d="M220.652 66.3342C219.956 66.3342 219.261 66.2569 218.643 66.1797C218.334 66.1024 218.179 65.7933 218.179 65.4842C218.179 65.1752 218.566 65.0206 218.875 65.0206C219.57 65.1751 220.188 65.1751 220.884 65.1751C221.038 64.557 220.575 62.1616 219.879 59.8435C219.802 59.5345 219.956 59.2254 220.265 59.1481C220.575 59.0708 220.884 59.2254 220.961 59.5345C221.425 61.1571 222.506 64.9433 221.734 65.9478C221.579 66.1797 221.347 66.3342 221.038 66.3342H220.652Z" fill="#222222"/>
<path d="M224.492 58.4892C224.548 57.7232 224.353 57.0844 224.055 57.0625C223.757 57.0406 223.47 57.6439 223.413 58.41C223.357 59.1761 223.553 59.8149 223.851 59.8367C224.149 59.8586 224.436 59.2553 224.492 58.4892Z" fill="#222222"/>
<path d="M217.417 57.5825C217.473 56.8164 217.277 56.1777 216.979 56.1558C216.681 56.1339 216.394 56.7372 216.338 57.5033C216.281 58.2694 216.477 58.9081 216.775 58.93C217.073 58.9519 217.36 58.3486 217.417 57.5825Z" fill="#222222"/>
<path d="M220.188 69.0386H219.879C216.479 68.884 214.238 65.9478 214.161 65.8705C214.006 65.6387 214.006 65.2524 214.238 65.0978C214.47 64.9433 214.856 64.9433 215.011 65.2523C215.011 65.2523 217.02 67.8795 219.879 67.9568C221.888 68.0341 223.897 66.9523 225.906 64.6342C226.138 64.4024 226.447 64.4024 226.679 64.5569C226.91 64.7887 226.91 65.0978 226.756 65.3296C224.67 67.8023 222.429 69.0386 220.188 69.0386Z" fill="#222222"/>
<path d="M144.392 9H184.031L187.972 27.622H140.374L144.392 9Z" fill="#222222"/>
<path d="M145.815 17.68C145.815 17.16 145.907 16.652 146.091 16.156C146.283 15.652 146.559 15.196 146.919 14.788C147.279 14.372 147.719 14.044 148.239 13.804C148.759 13.556 149.351 13.432 150.015 13.432C150.799 13.432 151.475 13.604 152.043 13.948C152.619 14.292 153.047 14.74 153.327 15.292L152.055 16.168C151.911 15.848 151.723 15.596 151.491 15.412C151.259 15.22 151.011 15.088 150.747 15.016C150.483 14.936 150.223 14.896 149.967 14.896C149.551 14.896 149.187 14.98 148.875 15.148C148.571 15.316 148.315 15.536 148.107 15.808C147.899 16.08 147.743 16.384 147.639 16.72C147.543 17.056 147.495 17.392 147.495 17.728C147.495 18.104 147.555 18.468 147.675 18.82C147.795 19.164 147.963 19.472 148.179 19.744C148.403 20.008 148.667 20.22 148.971 20.38C149.283 20.532 149.623 20.608 149.991 20.608C150.255 20.608 150.523 20.564 150.795 20.476C151.067 20.388 151.319 20.248 151.551 20.056C151.783 19.864 151.963 19.616 152.091 19.312L153.447 20.092C153.279 20.516 153.003 20.876 152.619 21.172C152.243 21.468 151.819 21.692 151.347 21.844C150.875 21.996 150.407 22.072 149.943 22.072C149.335 22.072 148.779 21.948 148.275 21.7C147.771 21.444 147.335 21.108 146.967 20.692C146.607 20.268 146.323 19.796 146.115 19.276C145.915 18.748 145.815 18.216 145.815 17.68ZM157.282 22.12C156.77 22.12 156.31 22.036 155.902 21.868C155.494 21.692 155.146 21.452 154.858 21.148C154.578 20.844 154.362 20.496 154.21 20.104C154.058 19.712 153.982 19.3 153.982 18.868C153.982 18.428 154.058 18.012 154.21 17.62C154.362 17.228 154.578 16.88 154.858 16.576C155.146 16.272 155.494 16.036 155.902 15.868C156.31 15.692 156.77 15.604 157.282 15.604C157.794 15.604 158.25 15.692 158.65 15.868C159.058 16.036 159.406 16.272 159.694 16.576C159.982 16.88 160.198 17.228 160.342 17.62C160.494 18.012 160.57 18.428 160.57 18.868C160.57 19.3 160.494 19.712 160.342 20.104C160.198 20.496 159.982 20.844 159.694 21.148C159.414 21.452 159.07 21.692 158.662 21.868C158.254 22.036 157.794 22.12 157.282 22.12ZM155.638 18.868C155.638 19.236 155.71 19.564 155.854 19.852C155.998 20.132 156.194 20.352 156.442 20.512C156.69 20.672 156.97 20.752 157.282 20.752C157.586 20.752 157.862 20.672 158.11 20.512C158.358 20.344 158.554 20.12 158.698 19.84C158.85 19.552 158.926 19.224 158.926 18.856C158.926 18.496 158.85 18.172 158.698 17.884C158.554 17.596 158.358 17.372 158.11 17.212C157.862 17.052 157.586 16.972 157.282 16.972C156.97 16.972 156.69 17.056 156.442 17.224C156.194 17.384 155.998 17.608 155.854 17.896C155.71 18.176 155.638 18.5 155.638 18.868ZM161.62 19.432V17.98H165.256V19.432H161.62ZM170.463 22.06C169.839 22.06 169.271 21.94 168.759 21.7C168.255 21.46 167.819 21.136 167.451 20.728C167.091 20.312 166.811 19.848 166.611 19.336C166.411 18.816 166.311 18.284 166.311 17.74C166.311 17.172 166.415 16.632 166.623 16.12C166.839 15.6 167.131 15.14 167.499 14.74C167.875 14.332 168.315 14.012 168.819 13.78C169.331 13.54 169.891 13.42 170.499 13.42C171.115 13.42 171.675 13.544 172.179 13.792C172.691 14.04 173.127 14.372 173.487 14.788C173.847 15.204 174.127 15.668 174.327 16.18C174.527 16.692 174.627 17.22 174.627 17.764C174.627 18.324 174.523 18.864 174.315 19.384C174.107 19.896 173.815 20.356 173.439 20.764C173.071 21.164 172.631 21.48 172.119 21.712C171.615 21.944 171.063 22.06 170.463 22.06ZM167.991 17.74C167.991 18.108 168.047 18.464 168.159 18.808C168.271 19.152 168.431 19.46 168.639 19.732C168.855 19.996 169.115 20.208 169.419 20.368C169.731 20.52 170.083 20.596 170.475 20.596C170.875 20.596 171.231 20.516 171.543 20.356C171.855 20.188 172.115 19.968 172.323 19.696C172.531 19.416 172.687 19.108 172.791 18.772C172.903 18.428 172.959 18.084 172.959 17.74C172.959 17.372 172.899 17.02 172.779 16.684C172.667 16.34 172.503 16.036 172.287 15.772C172.079 15.5 171.819 15.288 171.507 15.136C171.203 14.976 170.859 14.896 170.475 14.896C170.067 14.896 169.707 14.98 169.395 15.148C169.091 15.308 168.835 15.524 168.627 15.796C168.419 16.068 168.259 16.372 168.147 16.708C168.043 17.044 167.991 17.388 167.991 17.74ZM179.451 22.12C178.963 22.12 178.531 22.012 178.155 21.796C177.787 21.572 177.499 21.272 177.291 20.896V24.556H175.683V15.712H177.087V16.792C177.327 16.424 177.631 16.136 177.999 15.928C178.367 15.712 178.787 15.604 179.259 15.604C179.683 15.604 180.071 15.688 180.423 15.856C180.783 16.024 181.095 16.26 181.359 16.564C181.623 16.86 181.827 17.204 181.971 17.596C182.123 17.98 182.199 18.396 182.199 18.844C182.199 19.452 182.079 20.004 181.839 20.5C181.607 20.996 181.283 21.392 180.867 21.688C180.459 21.976 179.987 22.12 179.451 22.12ZM178.911 20.752C179.159 20.752 179.383 20.7 179.583 20.596C179.783 20.492 179.955 20.352 180.099 20.176C180.251 19.992 180.363 19.788 180.435 19.564C180.515 19.332 180.555 19.092 180.555 18.844C180.555 18.58 180.511 18.336 180.423 18.112C180.343 17.888 180.223 17.692 180.063 17.524C179.903 17.348 179.715 17.212 179.499 17.116C179.291 17.02 179.063 16.972 178.815 16.972C178.663 16.972 178.507 17 178.347 17.056C178.195 17.104 178.047 17.176 177.903 17.272C177.759 17.368 177.631 17.48 177.519 17.608C177.415 17.736 177.339 17.876 177.291 18.028V19.504C177.387 19.736 177.515 19.948 177.675 20.14C177.843 20.332 178.035 20.484 178.251 20.596C178.467 20.7 178.687 20.752 178.911 20.752Z" fill="white"/>
<path d="M138.441 26.2312H189.98C190.908 26.2312 191.603 27.0039 191.603 27.8539V29.6311C191.603 30.5583 190.83 31.2537 189.98 31.2537H138.441C137.514 31.2537 136.819 30.481 136.819 29.6311V27.8539C136.742 27.0039 137.514 26.2312 138.441 26.2312Z" fill="#222222"/>
<path d="M153.278 39.7534H179.163C180.322 39.7534 181.249 40.6807 181.249 41.8397V46.0895C181.249 47.2486 180.322 48.1758 179.163 48.1758H153.278C152.119 48.1758 151.191 47.2486 151.191 46.0895V41.8397C151.191 40.6807 152.119 39.7534 153.278 39.7534Z" fill="#5F58FC"/>
<path d="M164.25 35.7354C164.25 35.7354 163.863 41.2215 164.559 41.9169C165.409 42.6896 166.722 42.6896 167.572 41.9169C168.422 41.067 168.268 35.7354 168.268 35.7354H164.25Z" fill="#222222"/>
<path d="M40.6954 106.592C40.6954 106.592 20.7598 101.492 14.5782 110.996C8.39659 120.5 14.0373 124.982 24.0051 126.064C33.9729 127.146 40.309 127.841 42.2408 126.064C44.1725 124.287 43.7862 109.065 42.2408 107.828L40.6954 106.592Z" fill="#222222"/>
<path d="M41.7772 122.973L51.9768 124.75L50.2769 129.154L37.8364 126.064L41.7772 122.973Z" fill="#222222"/>
<path d="M288.268 106.592C288.268 106.592 308.203 101.492 314.385 110.996C320.567 120.5 314.926 124.982 304.958 126.064C294.99 127.146 288.654 127.841 286.722 126.064C284.791 124.287 285.177 109.065 286.722 107.828L288.268 106.592Z" fill="#222222"/>
<path d="M287.109 122.973L276.986 124.75L278.609 129.154L291.049 126.064L287.109 122.973Z" fill="#222222"/>
<path d="M307.663 143.681C305.808 131.318 281.623 126.064 281.623 126.064C281.623 126.064 273.973 90.906 269.646 75.8384C263.851 55.5937 260.915 36.2762 230.084 31.64C199.253 27.0038 123.297 28.472 101.893 31.64C80.4895 34.8081 79.485 31.64 68.2809 51.962C57.0768 72.284 47.9589 125.986 47.9589 125.986C47.9589 125.986 31.3459 135.491 26.5552 145.227C21.7645 154.963 30.2641 197.77 33.664 208.82C37.0639 219.869 40.4637 223.81 50.5088 223.81C60.5539 223.81 269.646 226.437 288.268 220.951C306.89 215.465 309.517 156.044 307.663 143.681ZM267.792 111.614C267.405 115.555 266.71 118.569 261.996 120.037C259.678 120.655 257.206 121.041 254.81 121.041C254.115 121.041 253.342 121.041 252.569 121.041H73.0716C72.8398 121.041 72.608 121.041 72.4534 120.964C70.2899 120.578 66.1173 118.259 64.4947 112.078C62.7175 105.278 75.6988 60.6935 79.7941 50.7257C84.0439 40.1397 116.961 36.1217 156.678 36.4308C194.076 36.7398 241.056 38.9034 247.547 43.8487C254.038 48.7939 268.255 105.819 267.792 111.614Z" fill="#5F58FC"/>
<path d="M112.247 192.516C112.247 192.516 103.825 164.699 104.134 161.762C104.443 158.826 106.529 155.194 108.229 154.654C109.929 154.113 218.957 153.34 221.584 155.194C224.211 157.049 225.756 159.908 225.525 161.994C225.293 164.08 220.502 189.348 219.189 192.439C217.875 195.529 116.729 198.079 112.247 192.516Z" fill="#222222"/>
<path d="M230.856 184.712C230.856 184.712 231.552 164.544 248.938 157.899C266.323 151.254 290.972 151.254 293.6 155.426C296.227 159.599 296.922 174.203 280.618 180.616C264.314 187.03 240.283 186.566 230.856 184.712Z" fill="white"/>
<path d="M247.16 186.489C241.674 186.566 236.188 186.102 230.779 185.252C230.547 185.175 230.315 184.943 230.315 184.712C230.315 184.48 231.243 164.158 248.706 157.435C265.782 150.867 291.049 150.481 293.986 155.195C295.531 157.667 296.227 162.69 294.527 167.712C293.136 171.885 289.659 177.68 280.695 181.234C270.805 185.175 257.823 186.489 247.16 186.489ZM231.474 184.325C240.979 186.025 264.391 186.643 280.464 180.23C288.963 176.83 292.286 171.421 293.599 167.403C295.299 162.149 294.295 157.59 293.136 155.813C290.74 151.949 266.091 151.949 249.092 158.517C233.793 164.312 231.706 181.234 231.474 184.325Z" fill="#222222"/>
<path d="M100.038 186.102C100.038 186.102 96.3294 159.985 79.1755 156.817C62.0216 153.649 41.0042 150.326 36.9862 156.817C32.9682 163.308 34.8999 174.666 45.9495 179.225C56.9991 183.784 91.4614 188.034 100.038 186.102Z" fill="white"/>
<path d="M93.5477 187.184C80.0255 187.184 54.7583 183.552 45.7177 179.843C40.5407 177.68 36.8317 173.816 35.2863 169.026C33.8955 164.93 34.3591 160.449 36.5226 156.662C40.6952 149.863 60.7853 152.954 79.3301 156.353C86.5162 157.667 92.5432 163.23 96.5613 172.503C98.4157 176.83 99.8066 181.389 100.579 186.102C100.579 186.411 100.425 186.643 100.193 186.72C98.0294 187.03 95.7886 187.184 93.5477 187.184ZM49.5812 153.726C43.7087 153.726 39.0725 154.653 37.4499 157.203C35.4409 160.681 35.0545 164.853 36.3681 168.717C37.8362 173.276 41.3134 176.83 46.1814 178.839C56.5355 183.089 90.1479 187.416 99.4975 185.716C98.8794 182.084 94.475 160.217 79.1756 157.435C71.0622 155.967 58.8536 153.726 49.5812 153.726Z" fill="#222222"/>
<path d="M116.343 163.694H212.698C213.162 163.694 213.471 164.08 213.471 164.467V165.085C213.471 165.549 213.084 165.858 212.698 165.858H116.343C115.879 165.858 115.57 165.471 115.57 165.085V164.467C115.493 164.08 115.879 163.694 116.343 163.694Z" fill="white"/>
<path d="M116.343 171.962H212.698C213.162 171.962 213.471 172.348 213.471 172.735V173.353C213.471 173.816 213.084 174.125 212.698 174.125H116.343C115.879 174.125 115.57 173.739 115.57 173.353V172.735C115.493 172.348 115.879 171.962 116.343 171.962Z" fill="white"/>
<path d="M116.343 180.307H212.698C213.162 180.307 213.471 180.693 213.471 181.08V181.698C213.471 182.162 213.084 182.471 212.698 182.471H116.343C115.879 182.471 115.57 182.084 115.57 181.698V181.08C115.493 180.693 115.879 180.307 116.343 180.307Z" fill="white"/>
<path d="M32.2728 146.927C31.9637 146.927 31.7319 146.695 31.7319 146.386C31.7319 146.077 31.9637 145.845 32.2728 145.845C33.4319 145.845 151.964 145.845 301.172 143.218C301.481 143.218 301.713 143.45 301.713 143.759C301.713 144.068 301.481 144.3 301.172 144.3C151.964 146.849 33.4319 146.927 32.2728 146.927Z" fill="#222222"/>
<path d="M259.137 121.505H72.4535C72.1444 121.505 71.9126 121.273 71.9126 120.964C71.9126 120.655 72.1444 120.423 72.4535 120.423H259.137C259.446 120.423 259.678 120.655 259.678 120.964C259.678 121.273 259.446 121.505 259.137 121.505Z" fill="#222222"/>
</g>
<defs>
<clipPath id="clip0_2125_2638">
<rect width="328" height="192" rx="16" fill="white"/>
</clipPath>
</defs>
</svg>
