<svg width="240" height="128" viewBox="0 0 240 128" fill="none" xmlns="http://www.w3.org/2000/svg">
<g clip-path="url(#clip0_2124_653)">
<rect width="240" height="127.996" rx="16" fill="#F3F3F3"/>
<path d="M56.0225 42.9942H55.9796C55.8079 42.9512 55.6791 42.7795 55.722 42.6078L61.4741 8.3959L43.2306 10.8427L41.7282 16.9382C41.6853 17.0669 41.5994 17.1528 41.4277 17.1957L26.1461 18.784C25.9744 18.8269 25.8027 18.6981 25.7598 18.5264C25.7169 18.3547 25.8456 18.183 26.0173 18.1401H26.0603L41.1273 16.5947L42.6297 10.4993C42.6726 10.3705 42.7584 10.2846 42.8872 10.2417L61.7746 7.75201C61.8605 7.75201 61.9892 7.79494 62.0322 7.83786C62.118 7.92372 62.118 8.00957 62.118 8.09542L56.2801 42.6937C56.323 42.9083 56.1942 42.9942 56.0225 42.9942Z" fill="#5F58FC"/>
<path d="M223.648 78.8373H223.605L24.3005 45.4839C24.1288 45.4839 24 45.3122 24 45.1405C24 44.9688 24.1717 44.84 24.3434 44.84C24.3863 44.84 24.3863 44.84 24.4293 44.84L223.734 78.1934C223.906 78.2364 224.035 78.4081 223.992 78.5798C223.906 78.7085 223.777 78.8373 223.648 78.8373Z" fill="#5F58FC"/>
<path d="M108.135 52.0945H108.092C107.92 52.0516 107.792 51.9228 107.834 51.7511L112.728 15.5646C112.771 15.3929 112.857 15.307 113.029 15.2641L154.624 12.8173C154.71 12.8173 154.795 12.8602 154.881 12.9032C154.967 12.989 154.967 13.0749 154.967 13.1607L152.52 28.8287C152.477 29.0004 152.349 29.1292 152.177 29.0862C152.005 29.0433 151.876 28.8716 151.919 28.6999L154.28 13.4183L113.372 15.8221L108.478 51.794C108.478 51.9657 108.307 52.0945 108.135 52.0945Z" fill="#5F58FC"/>
<path d="M214.333 44.7971C214.119 44.7971 213.99 44.6254 213.99 44.4537L217.553 3.71704L156.04 2.68681L153.121 25.8668C153.078 26.0385 152.949 26.1673 152.778 26.1243C152.606 26.1243 152.477 25.9526 152.477 25.7809L155.396 2.30048C155.439 2.12878 155.568 2 155.739 2L217.939 3.07315C218.025 3.07315 218.111 3.11607 218.154 3.159C218.197 3.24485 218.24 3.3307 218.24 3.41655L214.634 44.5395C214.634 44.7113 214.505 44.7971 214.333 44.7971Z" fill="#5F58FC"/>
<path d="M84.1393 48.8321H84.0535C83.8818 48.7891 83.753 48.6174 83.7959 48.4457L87.6163 32.048C87.6592 31.9193 87.7451 31.8334 87.8739 31.7905L108.779 28.1847C108.95 28.1418 109.122 28.2706 109.165 28.4423C109.208 28.614 109.079 28.7857 108.908 28.8286L88.2173 32.3914L84.4398 48.6174C84.3969 48.7462 84.2681 48.8321 84.1393 48.8321Z" fill="#5F58FC"/>
<path d="M195.103 127.773L202.1 130.048C202.1 130.048 203.903 136.916 204.718 136.401C205.534 135.886 205.362 123.051 205.362 123.051L195.575 119.617" fill="white"/>
<path d="M204.632 136.744C204.546 136.744 204.503 136.744 204.417 136.701C203.516 136.315 202.357 132.237 201.842 130.262L194.974 128.03C194.802 127.987 194.716 127.773 194.759 127.644C194.802 127.472 195.017 127.386 195.145 127.429L202.142 129.704C202.228 129.747 202.314 129.833 202.357 129.919C203.044 132.495 204.031 135.414 204.503 135.972C204.889 134.898 205.061 128.846 204.975 123.18L195.403 119.831C195.231 119.789 195.145 119.574 195.188 119.402C195.231 119.231 195.446 119.145 195.575 119.188C195.575 119.188 195.575 119.188 195.618 119.188L205.405 122.622C205.533 122.665 205.619 122.793 205.619 122.922C205.662 127.816 205.662 136.057 204.804 136.573C204.804 136.744 204.718 136.744 204.632 136.744Z" fill="#222222"/>
<path d="M151.79 120.518L148.828 126.442C148.828 126.442 138.955 124.897 139.771 126.614C140.587 128.331 153.851 136.229 153.851 136.229L159.174 125.111" fill="white"/>
<path d="M153.894 136.53C153.851 136.53 153.765 136.53 153.722 136.487C152.349 135.671 140.372 128.502 139.514 126.743C139.385 126.528 139.385 126.227 139.557 126.056C140.372 124.94 146.468 125.755 148.657 126.099L151.49 120.389C151.576 120.218 151.748 120.175 151.919 120.261C152.091 120.347 152.134 120.518 152.048 120.69L149.086 126.614C149.043 126.743 148.872 126.828 148.743 126.785C144.321 126.099 140.329 125.927 140.029 126.442V126.485C140.63 127.644 148.399 132.623 153.679 135.757L158.83 124.983C158.873 124.811 159.088 124.725 159.26 124.811C159.431 124.854 159.517 125.068 159.431 125.24C159.431 125.24 159.431 125.283 159.388 125.283L154.066 136.401C154.023 136.487 153.937 136.53 153.851 136.573C153.937 136.53 153.894 136.53 153.894 136.53Z" fill="#222222"/>
<path d="M166.728 77.2061L149.429 121.591L159.216 130.091L179.263 96.9949C179.263 96.9949 176.816 114.68 181.881 121.634C187.59 129.447 196.562 129.962 196.562 129.962L198.365 119.531C198.365 119.531 190.466 117.17 190.681 108.07C190.896 98.9695 193.299 83.2586 193.299 83.2586L166.728 77.2061Z" fill="#222222"/>
<path d="M176.859 32.692C176.859 32.692 174.455 35.8685 174.884 36.5553C175.314 37.2422 176.816 36.8988 176.816 36.8988" fill="white"/>
<path d="M176 37.3708C175.442 37.4138 174.927 37.1991 174.584 36.7699C174.112 35.9543 175.829 33.5504 176.601 32.5202C176.73 32.3914 176.902 32.3485 177.073 32.4773C177.202 32.6061 177.245 32.7778 177.116 32.9495C175.957 34.4948 175.013 36.1689 175.142 36.4694C175.356 36.8557 176.301 36.7699 176.73 36.684C176.902 36.6411 177.073 36.727 177.116 36.8987C177.159 37.0704 177.073 37.2421 176.902 37.285C176.601 37.3279 176.301 37.3708 176 37.3708Z" fill="#222222"/>
<path d="M151.919 53.2534C151.919 53.2534 152.95 55.6144 159.131 56.3441C162.436 56.7304 170.935 57.0309 170.935 57.0309L176.172 49.0896C176.172 49.0896 166.128 55.6144 150.073 47.8877C142.476 44.239 151.919 53.2534 151.919 53.2534Z" fill="white"/>
<path d="M170.935 57.3314C170.849 57.3314 162.436 57.0738 159.131 56.6446C153.336 55.9578 151.919 53.8544 151.704 53.4251C146.897 48.7891 146.682 47.3726 146.983 46.9433C147.326 46.4282 148.313 46.5999 150.288 47.5443C158.487 51.4935 165.054 51.6223 169.132 51.0213C173.554 50.3774 176.043 48.7891 176.043 48.7891C176.215 48.7033 176.387 48.7891 176.473 48.9608C176.516 49.0467 176.516 49.1325 176.473 49.2184L171.236 57.1597C171.15 57.2455 171.021 57.3314 170.935 57.3314ZM152.22 53.1247C152.22 53.1676 153.293 55.3139 159.174 56.0007C162.178 56.3441 169.519 56.6017 170.764 56.6446L175.228 49.9052C172.137 51.3218 162.951 54.3695 149.945 48.1453C147.798 47.115 147.455 47.3297 147.412 47.3297C147.283 47.8018 149.429 50.4203 152.134 52.9959C152.177 53.0388 152.22 53.0817 152.22 53.1247Z" fill="#222222"/>
<path d="M177.632 28.3564C176.172 29.3866 176.43 31.8334 176.344 33.3787C176.215 35.5679 176.129 37.7572 176.129 39.9893C176.129 41.3629 179.735 41.6634 180.379 41.2771L179.478 46.7287L187.247 44.3248L187.419 37.9718C187.419 37.9718 185.058 37.843 183.813 34.9241C182.568 32.0051 182.912 27.6267 182.912 27.6267C182.912 27.6267 179.048 27.3262 177.632 28.3564Z" fill="white"/>
<path d="M179.435 47.0721C179.263 47.0721 179.091 46.9004 179.134 46.7287V46.6858L179.993 41.7064C178.834 41.8352 177.632 41.6206 176.602 41.1484C176.13 40.9338 175.829 40.5045 175.829 39.9894C175.829 37.8002 175.915 35.568 176.044 33.3788C176.044 33.1212 176.044 32.8208 176.087 32.5203C176.13 30.9749 176.13 29.0433 177.503 28.0989C179.006 27.0258 182.783 27.2833 182.955 27.2833C183.127 27.2833 183.255 27.455 183.255 27.6267C183.255 27.6697 182.955 31.9622 184.114 34.7524C185.23 37.4567 187.376 37.6285 187.462 37.6285C187.634 37.6285 187.763 37.8002 187.763 37.9719L187.591 44.3249C187.591 44.4537 187.505 44.5824 187.376 44.6254L179.607 47.0292C179.478 47.0721 179.478 47.0721 179.435 47.0721ZM180.336 40.9767C180.508 40.9767 180.637 41.1054 180.68 41.2772V41.3201L179.864 46.2566L186.904 44.0673L187.076 38.2294C186.346 38.1006 184.543 37.4997 183.513 35.01C182.483 32.5203 182.526 29.0004 182.568 27.8843C181.624 27.8414 178.92 27.7984 177.847 28.5711C176.773 29.3438 176.731 31.1037 176.688 32.4773C176.688 32.7778 176.688 33.0783 176.645 33.3359C176.516 35.5251 176.43 37.7572 176.43 39.9035C176.43 40.1182 176.559 40.3328 176.859 40.5045C177.847 41.1055 179.821 41.1055 180.165 40.9338C180.208 40.9767 180.25 40.9767 180.336 40.9767Z" fill="#222222"/>
<path d="M176.087 44.9688C172.137 47.9736 162.093 56.0007 162.093 56.0007L166.815 66.26L170.463 63.5127L166.729 77.2061C166.729 77.2061 183.727 89.998 192.313 84.9328C192.313 84.9328 196.262 54.0261 193.386 47.2009C190.51 40.3757 180.036 41.964 176.087 44.9688Z" fill="#5F58FC"/>
<path d="M193.643 50.034C193.128 47.2009 191.497 44.7112 189.093 43.1659C190.467 43.5952 191.798 44.1103 193.128 44.7112C193.128 44.7112 196.176 46.0849 196.82 50.635L193.901 50.5062" fill="#222222"/>
<path d="M199.567 49.8194C199.567 49.8194 190.381 45.6127 186.217 47.8877C182.053 50.1628 173.768 77.8929 173.897 79.4382C174.026 80.9836 180.207 84.5894 186.818 85.3191C193.428 86.0488 195.575 85.5337 196.562 84.4176C197.549 83.3016 200.64 71.1536 199.996 68.7068C199.352 66.26 197.635 66.3029 197.635 66.3029C197.635 66.3029 201.928 52.2662 199.567 49.8194Z" fill="#222222"/>
<path d="M176.644 77.0344L176.386 76.5623L170.076 64.1567L169.218 68.5351C169.218 68.5351 172.523 78.6656 175.099 80.8978" fill="#222222"/>
<path d="M176.258 39.0021C176.258 39.0021 177.889 40.1611 178.92 38.444L176.258 39.0021Z" fill="white"/>
<path d="M177.46 39.6888C176.988 39.6888 176.473 39.5171 176.087 39.2596C175.958 39.1737 175.915 38.9591 176.001 38.7874C176.087 38.6586 176.301 38.6157 176.43 38.7015C176.816 38.9591 177.246 39.045 177.718 39.002C178.104 38.8733 178.447 38.6157 178.619 38.2723C178.705 38.1006 178.877 38.0577 179.048 38.1435C179.22 38.2294 179.263 38.4011 179.177 38.5728C179.177 38.5728 179.177 38.6157 179.134 38.6157C178.877 39.1308 178.362 39.5171 177.804 39.6459C177.718 39.6888 177.589 39.6888 177.46 39.6888Z" fill="#222222"/>
<path d="M182.268 34.0655C182.353 33.5075 182.611 32.9924 182.997 32.6061C183.255 32.2626 183.512 31.9192 183.856 31.6617C184.199 31.4041 184.629 31.2754 185.058 31.3612C185.444 31.49 185.702 31.7475 185.873 32.0909C186.045 32.4343 186.088 32.8207 186.088 33.207C186.045 34.8811 185.101 36.4265 183.641 37.242L183.77 37.1133" fill="white"/>
<path d="M183.598 37.5855C183.513 37.5855 183.384 37.5426 183.341 37.4567C183.255 37.3279 183.255 37.1562 183.384 37.0275L183.513 36.8987C183.555 36.8558 183.641 36.8128 183.727 36.8128C184.929 35.9972 185.702 34.6665 185.745 33.2071C185.745 32.8637 185.702 32.5632 185.573 32.2627C185.444 32.0051 185.23 31.7905 184.972 31.7047C184.629 31.6617 184.285 31.7476 184.028 31.9622C183.727 32.2198 183.47 32.4773 183.212 32.8207C182.869 33.1641 182.654 33.6363 182.568 34.1085C182.568 34.2802 182.396 34.409 182.225 34.409C182.053 34.409 181.924 34.2373 181.924 34.0656C182.01 33.4646 182.311 32.9066 182.697 32.4344C182.955 32.0481 183.255 31.7046 183.641 31.4042C184.071 31.0608 184.586 30.932 185.144 31.0608C185.616 31.1895 185.959 31.5329 186.174 31.9622C186.346 32.3485 186.432 32.7778 186.389 33.2071C186.346 35.0099 185.358 36.6411 183.77 37.5426C183.727 37.5426 183.641 37.5855 183.598 37.5855Z" fill="#222222"/>
<path d="M188.149 40.9766C187.977 40.9766 187.848 40.8908 187.762 40.762C187.719 40.6332 187.719 40.4615 187.848 40.3327C187.977 40.2469 188.149 40.204 188.277 40.2898C189.436 39.8606 190.338 39.002 190.81 37.886C192.184 34.9241 192.098 30.7603 190.595 27.4979C189.951 26.1672 189.222 25.2658 188.32 24.8365C187.419 24.4072 185.959 24.4931 185.358 25.3945C185.273 25.5233 185.058 25.5662 184.929 25.4804C184.843 25.4375 184.8 25.3087 184.8 25.2228C184.757 23.978 183.513 23.0336 182.354 22.8619C181.195 22.6902 180.036 22.9907 178.619 23.7634C178.147 24.0209 177.675 24.3214 177.202 24.6219C176.516 25.0941 175.786 25.4804 175.056 25.8667C174.455 26.1672 173.725 26.2531 173.039 26.0384H172.996C172.91 26.9399 173.082 27.8842 173.425 28.7428C173.897 29.6871 175.099 30.4169 176.043 29.9876C176.215 29.9018 176.387 29.9876 176.473 30.1593C176.559 30.331 176.473 30.5027 176.301 30.5886C174.97 31.1895 173.425 30.2881 172.824 29.0432C172.223 27.7984 172.266 26.3818 172.352 25.2228C172.352 25.0511 172.524 24.9224 172.695 24.9224C172.824 24.9224 172.953 25.0082 172.996 25.137C173.039 25.2658 173.124 25.3945 173.296 25.4375C173.768 25.5662 174.326 25.5233 174.756 25.3087C175.485 24.9653 176.172 24.536 176.859 24.1068C177.331 23.8063 177.803 23.5058 178.319 23.2482C179.864 22.3897 181.195 22.0463 182.439 22.261C183.727 22.4327 184.843 23.3341 185.315 24.536C186.303 23.8063 187.591 23.7204 188.664 24.2785C189.694 24.7936 190.552 25.7809 191.239 27.2404C192.827 30.6744 192.913 35.0529 191.454 38.1865C190.896 39.5172 189.737 40.5474 188.32 40.9766C188.234 40.9766 188.191 40.9766 188.149 40.9766Z" fill="#222222"/>
<path d="M180.336 41.2771C180.336 41.2771 182.225 40.805 183.212 39.603C183.212 39.603 182.869 42.9512 179.95 43.7239L180.336 41.2771Z" fill="#222222"/>
<path d="M179.95 44.0243C179.864 44.0243 179.778 43.9814 179.735 43.9385C179.649 43.8526 179.606 43.7668 179.649 43.638L180.078 41.1912C180.121 41.0624 180.207 40.9766 180.336 40.9337C180.336 40.9337 182.139 40.4615 182.997 39.3454C183.126 39.2166 183.298 39.1737 183.47 39.3025C183.555 39.3883 183.598 39.4742 183.598 39.603C183.598 39.7317 183.212 43.1658 180.078 43.9814C179.993 44.0243 179.95 44.0243 179.95 44.0243ZM180.636 41.5346L180.336 43.2517C181.452 42.7366 182.311 41.7493 182.654 40.5903C182.01 41.0195 181.323 41.32 180.636 41.5346Z" fill="#222222"/>
<path d="M175.614 45.2263C179.692 46.4712 183.856 46.6429 186.174 52.0945L189.179 50.7208C189.179 50.7208 187.419 44.7112 179.091 43.0371C179.091 43.08 177.117 42.9083 175.614 45.2263Z" fill="#222222"/>
<path d="M143.462 55.7432C142.647 51.9228 139.599 37.1134 138.827 33.1642C138.741 32.7778 138.998 32.3486 139.427 32.3057C139.513 32.3057 139.556 32.3057 139.642 32.3057L148.785 32.9066C149.3 32.9495 149.773 33.3359 149.858 33.851L153.722 55.271C153.808 55.6573 153.55 56.0008 153.164 56.0437C153.121 56.0437 153.121 56.0437 153.078 56.0437L144.622 56.5588C144.063 56.6446 143.591 56.3012 143.462 55.7432Z" fill="#222222"/>
<path d="M139.943 33.6792L144.536 55.0134L152.177 54.9275L148.356 34.1514L139.943 33.6792Z" fill="white"/>
<path d="M144.536 55.3568C144.364 55.3568 144.235 55.2709 144.235 55.0992L139.685 33.7222C139.642 33.6363 139.685 33.5075 139.771 33.4646C139.857 33.3787 139.943 33.3358 140.029 33.3358L148.442 33.808C148.571 33.808 148.7 33.9368 148.743 34.0656L152.563 54.8417C152.606 55.0134 152.477 55.1851 152.306 55.228H152.263L144.536 55.3568ZM140.372 34.0226L144.793 54.7129L151.833 54.6271L148.099 34.4519L140.372 34.0226Z" fill="#222222"/>
<path d="M166.557 64.9722C166.557 64.9722 161.878 68.3204 155.825 67.8912C152.177 67.6336 149.129 64.5429 146.682 62.1391C143.849 59.3489 141.316 56.2153 138.827 53.0817C138.354 52.4808 137.968 51.4935 138.612 51.1501C137.968 50.3345 138.097 49.1326 138.912 48.4887C138.998 48.4457 139.084 48.3599 139.17 48.317C138.955 47.8019 138.741 46.8146 139.041 46.3424C139.041 46.3424 139.642 45.4409 139.685 45.956C139.599 44.7112 140.501 43.3805 140.501 43.3805L141.617 46.3424C141.703 45.6985 142.69 46.1707 143.334 47.0721C143.978 47.9736 144.192 49.9052 144.235 50.0769C144.235 50.0769 153.25 61.2806 156.641 60.3362C158.873 59.6923 161.019 58.748 163.037 57.6319" fill="white"/>
<path d="M156.899 68.2775C156.556 68.2775 156.212 68.2775 155.826 68.2346C152.177 67.977 149.086 64.9722 146.64 62.5684L146.468 62.3967C143.549 59.5636 141.016 56.387 138.57 53.3393C138.226 52.91 137.84 52.1803 137.969 51.5793C138.012 51.4076 138.055 51.2789 138.183 51.1501C137.625 50.1628 137.883 48.9179 138.784 48.2311C138.613 47.716 138.441 46.7716 138.784 46.2136C138.956 45.9561 139.128 45.7414 139.385 45.5697C139.471 44.7112 139.772 43.9385 140.244 43.2088C140.33 43.1229 140.415 43.0371 140.544 43.08C140.673 43.08 140.759 43.1659 140.802 43.2947L141.746 45.7843H141.789C142.39 45.6556 143.12 46.2995 143.592 46.9434C144.15 47.716 144.365 49.0896 144.493 49.7335C144.493 49.8194 144.536 49.9052 144.536 49.9911C147.069 53.0817 153.98 60.8084 156.556 60.1216C158.745 59.4777 160.891 58.5763 162.909 57.4602C163.037 57.3743 163.252 57.4173 163.338 57.546C163.424 57.6748 163.381 57.8895 163.252 57.9753H163.209C161.149 59.1343 158.959 60.0787 156.727 60.7226C155.225 61.1518 152.606 59.4777 148.958 55.829C146.296 53.1676 144.021 50.3345 144.021 50.3345C144.021 50.2916 143.978 50.2916 143.978 50.2486C143.935 50.1199 143.892 49.9911 143.892 49.8623C143.807 49.3043 143.549 47.9736 143.077 47.3297C142.819 46.9004 142.433 46.5999 141.961 46.4282C141.961 46.4282 141.961 46.4282 141.961 46.4712C141.918 46.6429 141.746 46.7716 141.574 46.7287C141.446 46.7287 141.36 46.6429 141.317 46.5141L140.458 44.1961C140.158 44.7541 140.029 45.3551 140.029 45.999C140.029 46.1707 139.9 46.3424 139.729 46.3424C139.686 46.3424 139.6 46.3424 139.557 46.2995C139.471 46.3853 139.385 46.5141 139.342 46.5999C139.128 46.9433 139.299 47.8019 139.514 48.274C139.6 48.4458 139.514 48.6175 139.385 48.7033C138.655 49.1326 138.398 50.1199 138.827 50.8496C138.87 50.8925 138.913 50.9784 138.956 51.0213C139.042 51.1072 139.042 51.193 139.042 51.2789C139.042 51.3647 138.956 51.4506 138.87 51.4935C138.784 51.5364 138.698 51.6223 138.698 51.7081C138.698 52.1803 138.87 52.6096 139.171 52.953C141.617 56.0007 144.15 59.1343 147.026 61.9674L147.198 62.1391C149.602 64.4571 152.563 67.3761 155.998 67.6336C161.835 68.02 166.471 64.8005 166.514 64.7576C166.643 64.6717 166.858 64.6717 166.944 64.8434C167.029 64.9722 166.987 65.1868 166.858 65.2727C163.81 67.1614 160.376 68.2346 156.899 68.2775Z" fill="#222222"/>
<path d="M155.482 50.1198C155.482 50.1198 151.619 46.4282 151.018 47.0721C150.417 47.716 151.962 49.3901 152.821 50.3345C153.679 51.2788 154.623 52.5237 154.623 52.5237" fill="white"/>
<path d="M154.624 52.8672C154.538 52.8672 154.409 52.8243 154.366 52.7384C154.366 52.7384 153.422 51.4936 152.606 50.5492L152.434 50.3346C151.404 49.1326 150.073 47.6732 150.803 46.8576C150.889 46.7288 151.061 46.6859 151.232 46.6859C152.263 46.6429 155.182 49.3473 155.74 49.9053C155.868 50.0341 155.826 50.2487 155.697 50.3775C155.568 50.4633 155.439 50.4633 155.31 50.3775C153.55 48.7034 151.748 47.3298 151.275 47.3298C151.018 47.759 152.434 49.3902 152.907 49.9053L153.078 50.1199C153.894 51.0643 154.881 52.3521 154.881 52.3521C155.01 52.4809 154.967 52.6955 154.838 52.7813C154.752 52.8243 154.709 52.8672 154.624 52.8672Z" fill="#222222"/>
<path d="M170.077 64.1566C170.077 64.1566 174.884 59.6494 177.331 57.8036L170.077 64.1566Z" fill="white"/>
<path d="M170.077 64.5001C169.991 64.5001 169.906 64.4571 169.863 64.4142C169.734 64.2854 169.734 64.0708 169.863 63.942C169.906 63.8991 174.713 59.3919 177.16 57.589C177.289 57.5031 177.504 57.5031 177.589 57.6748C177.675 57.8036 177.675 58.0182 177.546 58.1041C175.143 59.907 170.378 64.3713 170.335 64.4142C170.249 64.4571 170.163 64.5001 170.077 64.5001Z" fill="#222222"/>
<path d="M179.263 79.4812C179.048 79.4383 178.919 79.3095 178.962 79.1378C179.005 78.7086 180.293 68.8785 182.611 66.26C184.972 63.5128 196.133 66.0454 196.605 66.1742C196.777 66.2171 196.862 66.3888 196.819 66.5605C196.777 66.7322 196.605 66.8181 196.433 66.7752C193.3 66.0454 184.8 64.6718 183.04 66.6893C180.851 69.179 179.563 79.1378 179.52 79.2237C179.563 79.3954 179.435 79.4812 179.263 79.4812Z" fill="white"/>
<path d="M186.217 63.1693C186.174 63.1693 186.131 63.1693 186.131 63.1693C185.96 63.1264 185.874 62.9547 185.917 62.783C186.818 60.1216 187.591 57.3743 188.235 54.6271C188.406 53.7686 188.578 52.7813 188.192 51.9657C187.977 51.5364 187.591 51.193 187.119 51.0642C186.818 50.9784 186.518 51.0213 186.26 51.193C186.131 51.2789 185.917 51.2789 185.831 51.1072C185.745 50.9784 185.745 50.7638 185.917 50.6779C186.303 50.4204 186.818 50.3345 187.29 50.4633C187.934 50.635 188.492 51.1072 188.75 51.7081C189.222 52.6954 189.007 53.8115 188.836 54.7559C188.235 57.546 187.462 60.2933 186.518 62.9976C186.475 63.1264 186.346 63.1693 186.217 63.1693Z" fill="white"/>
<path d="M193.257 75.3602C193.826 75.3602 194.287 74.899 194.287 74.33C194.287 73.761 193.826 73.2998 193.257 73.2998C192.688 73.2998 192.227 73.761 192.227 74.33C192.227 74.899 192.688 75.3602 193.257 75.3602Z" fill="white"/>
<path d="M146.124 46.6858L145.738 45.8702C145.308 45.0117 144.879 44.1532 144.45 43.2946C144.278 42.9942 144.192 42.6507 144.192 42.3073C144.192 41.2342 145.094 40.3757 146.167 40.4186C147.068 40.4186 147.798 41.0196 148.013 41.8781C148.142 42.3073 148.099 42.8224 147.884 43.2088C147.541 43.9385 147.154 44.6683 146.811 45.3551C146.596 45.7843 146.382 46.2136 146.167 46.5999C146.124 46.6429 146.124 46.6429 146.124 46.6858ZM146.124 43.2946C146.639 43.2946 147.111 42.8654 147.111 42.3503C147.111 41.8351 146.682 41.363 146.167 41.363C145.652 41.363 145.18 41.7922 145.18 42.3073C145.137 42.8654 145.566 43.2946 146.124 43.2946Z" fill="#5F58FC"/>
<path d="M179.606 96.1364C179.478 96.1364 179.392 96.0934 179.349 95.9647C179.263 95.8359 179.306 95.6213 179.435 95.5354C179.478 95.4925 183.212 93.0886 183.856 88.7531C183.856 88.5814 184.028 88.4526 184.199 88.4526C184.371 88.4526 184.5 88.6243 184.5 88.7961V88.839C183.856 93.5179 179.95 95.9647 179.778 96.0935C179.692 96.1364 179.649 96.1364 179.606 96.1364Z" fill="white"/>
<path d="M48.7681 72.1837C52.5375 72.1837 55.5933 71.2997 55.5933 70.2092C55.5933 69.1186 52.5375 68.2346 48.7681 68.2346C44.9986 68.2346 41.9429 69.1186 41.9429 70.2092C41.9429 71.2997 44.9986 72.1837 48.7681 72.1837Z" fill="#5F58FC"/>
<path d="M120.455 129.962C118.995 129.962 117.579 129.833 116.119 129.661C115.947 129.619 115.819 129.49 115.862 129.318C115.905 129.146 116.033 129.018 116.205 129.061C117.622 129.232 119.038 129.361 120.455 129.361C120.626 129.361 120.755 129.49 120.755 129.704C120.755 129.833 120.626 129.962 120.455 129.962ZM124.747 129.833C124.576 129.833 124.404 129.704 124.404 129.533C124.404 129.361 124.533 129.189 124.704 129.189C126.164 129.061 127.58 128.889 128.911 128.631C129.083 128.588 129.254 128.674 129.297 128.846C129.34 129.018 129.254 129.189 129.083 129.232H129.04C127.666 129.533 126.25 129.704 124.747 129.833ZM111.998 128.674C111.955 128.674 111.912 128.674 111.912 128.674C111.054 128.374 110.238 127.987 109.509 127.515C108.993 127.215 108.564 126.828 108.178 126.356C108.049 126.227 108.092 126.013 108.221 125.884C108.35 125.755 108.564 125.798 108.693 125.927C109.036 126.313 109.466 126.657 109.895 126.957C110.625 127.386 111.397 127.773 112.17 128.03C112.342 128.073 112.428 128.245 112.385 128.417C112.385 128.417 112.385 128.417 112.385 128.46C112.256 128.588 112.127 128.674 111.998 128.674ZM133.161 128.202C133.032 128.202 132.903 128.116 132.86 127.987C132.774 127.816 132.86 127.644 133.032 127.558C133.032 127.558 133.032 127.558 133.075 127.558L133.633 127.343C134.148 127.129 134.706 127 135.264 126.957C135.608 126.957 135.908 127.043 136.208 127.215C136.337 127.301 136.38 127.515 136.294 127.644C136.208 127.773 136.037 127.816 135.865 127.73C135.693 127.644 135.479 127.558 135.264 127.558C134.792 127.601 134.32 127.73 133.89 127.902C133.719 127.987 133.504 128.03 133.332 128.116C133.204 128.202 133.204 128.202 133.161 128.202ZM106.675 122.622C106.504 122.622 106.375 122.493 106.375 122.364C106.203 121.291 106.075 120.218 105.989 119.145L105.903 118.071C105.903 117.9 106.032 117.728 106.203 117.728C106.375 117.728 106.547 117.857 106.547 118.029C106.59 118.372 106.59 118.758 106.633 119.102C106.718 120.175 106.804 121.248 106.976 122.278C107.019 122.45 106.89 122.622 106.718 122.665L106.675 122.622ZM65.81 118.071C64.3076 117.986 62.8911 117.599 61.5604 116.955C61.3887 116.87 61.3457 116.698 61.4316 116.526C61.5174 116.354 61.6891 116.312 61.8608 116.397C63.1057 116.998 64.4793 117.342 65.853 117.471C66.0247 117.471 66.1534 117.642 66.1534 117.814C66.1534 117.986 65.9817 118.071 65.81 118.071ZM70.1026 117.814C69.9309 117.814 69.7592 117.685 69.7592 117.513C69.7592 117.342 69.888 117.213 70.0168 117.17C70.3172 117.127 70.6177 117.041 70.8753 116.998C71.9484 116.741 73.0216 116.397 74.0518 116.011C74.2235 115.968 74.3952 116.054 74.4811 116.183C74.5669 116.312 74.4381 116.526 74.3093 116.612C73.2362 117.041 72.1631 117.385 71.047 117.642C70.7465 117.685 70.446 117.771 70.1026 117.814ZM78.1298 114.938C77.9581 114.938 77.8293 114.809 77.8293 114.595C77.8293 114.466 77.9151 114.337 78.001 114.294L78.559 114.036C79.5034 113.607 80.4907 113.135 81.478 112.749C81.6497 112.663 81.7785 112.62 81.9502 112.534C82.1219 112.448 82.2936 112.491 82.3794 112.663C82.4653 112.835 82.4223 113.006 82.2506 113.092C82.2506 113.092 82.2077 113.092 82.2077 113.135L81.7355 113.35C80.7482 113.779 79.7609 114.208 78.8166 114.637L78.2585 114.895C78.2156 114.938 78.1727 114.938 78.1298 114.938ZM58.4268 114.251C58.3409 114.251 58.2121 114.208 58.1692 114.122C57.3536 112.92 56.7097 111.59 56.3234 110.173C56.2805 110.001 56.3663 109.83 56.538 109.787C56.7097 109.744 56.8814 109.83 56.9244 110.001C57.3107 111.332 57.9117 112.62 58.6843 113.779C58.7702 113.908 58.7273 114.122 58.5985 114.208C58.5985 114.208 58.5126 114.208 58.4268 114.251ZM105.388 114.122C105.259 114.122 105.13 114.036 105.087 113.908C104.787 113.092 104.315 112.319 103.671 111.676C103.327 111.332 102.984 111.032 102.555 110.774C102.426 110.688 102.383 110.474 102.469 110.345C102.555 110.216 102.769 110.173 102.898 110.259C103.327 110.559 103.757 110.86 104.1 111.246C104.787 111.933 105.302 112.792 105.645 113.693C105.731 113.865 105.645 114.036 105.474 114.122C105.474 114.122 105.431 114.122 105.388 114.122ZM86.071 111.718C85.8993 111.718 85.7706 111.59 85.7706 111.375C85.7706 111.246 85.8564 111.118 85.9852 111.075C87.3588 110.645 88.7324 110.216 90.149 109.873C90.3207 109.83 90.4924 109.959 90.5353 110.13C90.5783 110.302 90.4495 110.474 90.2778 110.517C88.9042 110.86 87.5305 111.246 86.1569 111.676C86.1569 111.718 86.114 111.718 86.071 111.718ZM94.3987 109.701C94.227 109.701 94.0982 109.572 94.0982 109.358C94.0982 109.186 94.227 109.057 94.3557 109.057C95.8152 108.842 97.2747 108.8 98.6913 108.885C98.863 108.885 98.9917 109.057 98.9917 109.229C98.9917 109.4 98.82 109.529 98.6483 109.529C97.2747 109.443 95.8581 109.486 94.3987 109.701ZM55.8941 106.138C55.7224 106.138 55.5937 106.009 55.5507 105.838C55.5507 105.494 55.5078 105.194 55.5078 104.85C55.5078 103.734 55.6366 102.575 55.8512 101.459C55.8941 101.287 56.0659 101.159 56.2376 101.202C56.4093 101.245 56.538 101.416 56.4951 101.588C56.2805 102.661 56.1517 103.734 56.1517 104.807C56.1517 105.108 56.1517 105.451 56.1946 105.752C56.2376 106.009 56.1088 106.138 55.8941 106.138ZM58.0404 98.0251C57.9546 98.0251 57.9117 97.9822 57.8258 97.9393C57.697 97.8105 57.697 97.6388 57.7829 97.51C58.7273 96.3939 59.8433 95.4496 61.1311 94.6769C61.2599 94.591 61.4745 94.634 61.5604 94.7627C61.6462 94.8915 61.6033 95.1062 61.4745 95.192C60.2726 95.9217 59.1994 96.8232 58.298 97.8963C58.2121 97.9822 58.1263 98.0251 58.0404 98.0251ZM64.9515 93.0028C64.7798 93.0028 64.651 92.874 64.651 92.6594C64.651 92.5306 64.694 92.4447 64.8227 92.4018L68.5144 90.1697C68.6861 90.0838 68.8578 90.1268 68.9436 90.2985C69.0295 90.4702 68.9865 90.6419 68.8148 90.7277L65.1661 92.9169C65.0803 93.0028 64.9944 93.0028 64.9515 93.0028ZM72.2918 88.5385C72.1631 88.5385 72.0772 88.4956 72.0343 88.4097C71.9484 88.2809 71.9914 88.0663 72.1201 87.9805C73.3221 87.2507 74.3952 86.3493 75.3825 85.3191C75.5113 85.1903 75.7259 85.1903 75.8547 85.2761C75.9835 85.4049 75.9835 85.6195 75.8976 85.7483C74.9103 86.8215 73.7513 87.7229 72.5065 88.5385C72.4206 88.5385 72.3348 88.5385 72.2918 88.5385ZM77.6576 82.0996C77.6146 82.0996 77.6146 82.0996 77.5717 82.0996C77.4 82.0567 77.3142 81.885 77.3142 81.7133C77.4429 81.1982 77.5288 80.6831 77.5288 80.125C77.5288 79.3094 77.3571 78.4938 76.9708 77.7641C76.8849 77.6353 76.9278 77.4207 77.0566 77.3348C77.1854 77.249 77.4 77.2919 77.4859 77.4207C77.4859 77.4207 77.4859 77.4636 77.5288 77.4636C77.958 78.2792 78.1727 79.1806 78.1727 80.125C78.1727 80.726 78.0868 81.284 77.958 81.8421C77.9151 82.0138 77.7863 82.0996 77.6576 82.0996ZM74.1376 75.0598C74.0947 75.0598 74.0518 75.0598 73.9659 75.0168C73.5796 74.8022 73.1933 74.5876 72.7211 74.373C71.8626 73.9866 70.9611 73.6432 70.1026 73.2998C69.9309 73.2569 69.8451 73.0423 69.888 72.9135C69.888 72.9135 69.888 72.9135 69.888 72.8705C69.9309 72.6988 70.1026 72.613 70.2743 72.6559C70.2743 72.6559 70.2743 72.6559 70.3172 72.6559C71.2187 72.9564 72.1201 73.3427 72.9786 73.7291C73.4508 73.9437 73.8801 74.1583 74.2664 74.373C74.4381 74.4588 74.4811 74.6734 74.3952 74.8022C74.3523 74.9739 74.2664 75.0168 74.1376 75.0598ZM66.0676 72.2267C66.0247 72.2267 66.0247 72.2267 65.9817 72.2267C64.6081 71.9262 63.1915 71.7545 61.775 71.6257C61.6033 71.6257 61.4745 71.454 61.4745 71.2823C61.4745 71.1106 61.6462 70.9818 61.8179 70.9818C63.2774 71.0677 64.694 71.2823 66.1105 71.5828C66.2822 71.6257 66.411 71.7974 66.3681 71.9691C66.3251 72.0979 66.1964 72.2267 66.0676 72.2267Z" fill="#5F58FC"/>
<path d="M49.1545 66.6464C48.1243 64.543 47.137 62.5684 46.1497 60.5509C42.9732 54.112 39.7967 47.6302 36.5772 41.1913C35.3324 38.8733 34.6885 36.3407 34.6885 33.7222C34.8173 25.6951 41.4708 19.2991 49.4979 19.4708C56.0226 19.5996 61.6459 24.021 63.2771 30.3311C64.1786 33.7222 63.7493 37.328 62.161 40.4187C59.4996 45.8273 56.7953 51.1931 54.1339 56.6017C52.5456 59.7782 51.0003 62.9118 49.4121 66.0883C49.3262 66.303 49.2404 66.4318 49.1545 66.6464ZM49.1545 41.2343C53.1895 41.2343 56.4519 38.0148 56.4519 33.9798C56.4519 29.9448 53.2325 26.6824 49.1974 26.6824C45.1624 26.6824 41.9 29.9018 41.9 33.9369C41.9 37.9719 45.1195 41.1913 49.1545 41.2343Z" fill="#5F58FC"/>
</g>
<defs>
<clipPath id="clip0_2124_653">
<rect width="240" height="127.996" rx="16" fill="white"/>
</clipPath>
</defs>
</svg>
